<svg width="20" height="20" viewBox="0 0 20 20" fill="none" xmlns="http://www.w3.org/2000/svg">
<rect width="20" height="20" rx="10" fill="#3B8CFF"/>
<path fill-rule="evenodd" clip-rule="evenodd" d="M9.67862 4.0009C9.72827 3.99348 9.77246 4.03299 9.77246 4.084V7.20525C9.77246 7.2521 9.80982 7.29008 9.8559 7.29008H10.7669C10.8129 7.29008 10.8503 7.2521 10.8503 7.20525V4.084C10.8503 4.03299 10.8945 3.99348 10.9441 4.0009C13.0253 4.31201 14.6228 6.13447 14.6228 8.33618C14.6228 10.7279 12.7376 12.6722 10.3951 12.7175C10.349 12.7184 10.3114 12.7563 10.3114 12.8032V15.7222C10.3114 15.8783 10.1868 16.0055 10.0332 15.9998C8.63969 15.9485 7.34253 15.513 6.2412 14.7945C6.08814 14.6946 6 14.5202 6 14.3353V8.4464C6 8.44603 6.00029 8.44573 6.00065 8.44573C6.00102 8.44573 6.00131 8.44543 6.0013 8.44505C6.00044 8.40887 6 8.37258 6 8.33618C6 6.13447 7.59749 4.31201 9.67862 4.0009ZM8.69461 5.63681C8.69461 5.57151 8.62524 5.53102 8.5711 5.56616C8.37416 5.69399 8.19095 5.84345 8.02493 6.0122C7.72466 6.31739 7.48648 6.6797 7.32398 7.07845C7.16148 7.4772 7.07785 7.90458 7.07785 8.33618C7.07785 8.76778 7.16148 9.19516 7.32398 9.59391C7.48648 9.99266 7.72466 10.355 8.02493 10.6602C8.32519 10.9654 8.68165 11.2074 9.07396 11.3726C9.46627 11.5378 9.88675 11.6228 10.3114 11.6228C10.736 11.6228 11.1565 11.5378 11.5488 11.3726C11.9411 11.2074 12.2976 10.9654 12.5978 10.6602C12.8981 10.355 13.1363 9.99266 13.2988 9.59391C13.4613 9.19516 13.5449 8.76779 13.5449 8.33618C13.5449 7.90458 13.4613 7.4772 13.2988 7.07845C13.1363 6.6797 12.8981 6.31739 12.5978 6.0122C12.4318 5.84345 12.2486 5.69399 12.0517 5.56616C11.9975 5.53102 11.9281 5.57151 11.9281 5.63681V6.85486C11.9281 6.87552 11.9356 6.89543 11.9488 6.91112C12.0963 7.0862 12.2159 7.28411 12.303 7.49769C12.4113 7.76353 12.4671 8.04845 12.4671 8.33618C12.4671 8.62392 12.4113 8.90883 12.303 9.17467C12.1946 9.4405 12.0359 9.68204 11.8357 9.8855C11.6355 10.089 11.3979 10.2504 11.1363 10.3605C10.8748 10.4706 10.5945 10.5273 10.3114 10.5273C10.0283 10.5273 9.74797 10.4706 9.48643 10.3605C9.22489 10.2504 8.98725 10.089 8.78708 9.8855C8.5869 9.68204 8.42812 9.4405 8.31978 9.17467C8.21145 8.90883 8.15569 8.62392 8.15569 8.33618C8.15569 8.04844 8.21145 7.76353 8.31978 7.49769C8.40683 7.28411 8.52644 7.0862 8.67392 6.91112C8.68714 6.89543 8.69461 6.87552 8.69461 6.85486V5.63681Z" fill="white"/>
</svg>
